<svg xmlns="http://www.w3.org/2000/svg" width="900" height="520" viewBox="0 0 900 520">
  <rect width="900" height="520" fill="#1a1d23"/>
  <rect x="0" y="0" width="220" height="520" fill="#13151a"/>
  <rect x="20" y="20" width="180" height="36" rx="6" fill="#252830"/>
  <text x="110" y="44" font-family="monospace" font-size="13" fill="#8b949e" text-anchor="middle">SYNS Man</text>
  <rect x="20" y="72" width="180" height="32" rx="5" fill="#2d5a9e" opacity="0.6"/>
  <text x="40" y="93" font-family="monospace" font-size="12" fill="#79c0ff">⬡  Dashboard</text>
  <text x="40" y="140" font-family="monospace" font-size="11" fill="#6e7681">Connections</text>
  <rect x="20" y="152" width="180" height="28" rx="4" fill="#252830"/>
  <text x="40" y="171" font-family="monospace" font-size="11" fill="#c9d1d9">prod-server-01</text>
  <rect x="20" y="186" width="180" height="28" rx="4" fill="#252830"/>
  <text x="40" y="205" font-family="monospace" font-size="11" fill="#c9d1d9">staging-web</text>
  <rect x="20" y="220" width="180" height="28" rx="4" fill="#252830"/>
  <text x="40" y="239" font-family="monospace" font-size="11" fill="#c9d1d9">dev-ubuntu-22</text>
  <rect x="240" y="20" width="640" height="480" rx="8" fill="#161b22"/>
  <text x="268" y="55" font-family="monospace" font-size="16" fill="#f0f6fc" font-weight="bold">Dashboard</text>
  <rect x="268" y="75" width="180" height="80" rx="6" fill="#1f2937"/>
  <text x="358" y="108" font-family="monospace" font-size="11" fill="#8b949e" text-anchor="middle">Total Connections</text>
  <text x="358" y="138" font-family="monospace" font-size="28" fill="#58a6ff" text-anchor="middle" font-weight="bold">3</text>
  <rect x="468" y="75" width="180" height="80" rx="6" fill="#1f2937"/>
  <text x="558" y="108" font-family="monospace" font-size="11" fill="#8b949e" text-anchor="middle">Active Sessions</text>
  <text x="558" y="138" font-family="monospace" font-size="28" fill="#3fb950" text-anchor="middle" font-weight="bold">1</text>
  <text x="268" y="195" font-family="monospace" font-size="13" fill="#8b949e">Recent Activity</text>
  <rect x="268" y="208" width="580" height="260" rx="6" fill="#0d1117"/>
  <text x="290" y="232" font-family="monospace" font-size="11" fill="#3fb950">● prod-server-01</text>
  <text x="500" y="232" font-family="monospace" font-size="10" fill="#6e7681">Connected · 2 min ago</text>
  <text x="290" y="258" font-family="monospace" font-size="11" fill="#6e7681">○ staging-web</text>
  <text x="500" y="258" font-family="monospace" font-size="10" fill="#6e7681">Last: 1 hour ago</text>
  <text x="290" y="284" font-family="monospace" font-size="11" fill="#6e7681">○ dev-ubuntu-22</text>
  <text x="500" y="284" font-family="monospace" font-size="10" fill="#6e7681">Last: yesterday</text>
  <text x="550" y="490" font-family="monospace" font-size="10" fill="#30363d" text-anchor="middle">[ Replace with actual screenshot: docs/screenshots/dashboard.png ]</text>
</svg>
